<svg width="52" height="52" viewBox="0 0 52 52" fill="none" xmlns="http://www.w3.org/2000/svg">
<path d="M42.6667 28.7778V9.33333C42.6667 4.73096 38.9357 1 34.3333 1C30.6977 1 27.6059 3.32817 26.4674 6.57494M6.55556 51L9.33333 42.6667M45.4444 51L42.6667 42.6667M1 28.7778H51M26.4674 6.57494C26.3133 6.5621 26.1574 6.55556 26 6.55556C22.9318 6.55556 20.4444 9.04286 20.4444 12.1111V14.8889H31.5556V12.1111C31.5556 9.20026 29.3169 6.81228 26.4674 6.57494ZM48.2222 28.7778H3.77778C3.77778 37.9825 11.2397 45.4444 20.4444 45.4444H31.5556C40.7603 45.4444 48.2222 37.9825 48.2222 28.7778Z" stroke="#D09426" stroke-width="2" stroke-linecap="round" stroke-linejoin="round"/>
</svg>
