<svg width="31" height="30" viewBox="0 0 31 30" fill="none" xmlns="http://www.w3.org/2000/svg">
<path d="M1.44434 7.22222C1.44434 3.78578 4.23012 1 7.66656 1H23.2221C26.6586 1 29.4443 3.78578 29.4443 7.22222V22.7778C29.4443 26.2142 26.6586 29 23.2221 29H7.66656C4.23012 29 1.44434 26.2142 1.44434 22.7778V7.22222Z" stroke="#D09426" stroke-width="2" stroke-linecap="round" stroke-linejoin="round"/>
<path d="M20.111 15C20.111 17.5773 18.0217 19.6667 15.4443 19.6667C12.867 19.6667 10.7777 17.5773 10.7777 15C10.7777 12.4227 12.867 10.3333 15.4443 10.3333C18.0217 10.3333 20.111 12.4227 20.111 15Z" stroke="#D09426" stroke-width="2" stroke-linecap="round" stroke-linejoin="round"/>
<path d="M24.7777 7.22222C24.7777 8.08133 24.0812 8.77778 23.2221 8.77778C22.363 8.77778 21.6666 8.08133 21.6666 7.22222C21.6666 6.36311 22.363 5.66667 23.2221 5.66667C24.0812 5.66667 24.7777 6.36311 24.7777 7.22222Z" stroke="#D09426" stroke-width="2" stroke-linecap="round" stroke-linejoin="round"/>
</svg>
