<svg width="179" height="62" viewBox="0 0 179 62" fill="none" xmlns="http://www.w3.org/2000/svg">
<path d="M173.187 22.3073L167.609 20.3899V13.1422L156.016 0L143.62 7.61927V25.5L138.624 29.5275V42.5688L132.866 46.7018L132.995 60.2294H1.58081V62H133.013H133.527H138.624H143.62H146.019H146.12V8.15596L154.002 3.72018L153.915 62H156.016H163.012V21.8853L170.205 25.0917V62H179V32.5183L173.187 22.3073Z" fill="#D09426"/>
<path d="M14.0548 35.1376C13.7944 35.4 13.4921 35.6171 13.1602 35.7798C12.7053 36.0097 12.2328 36.203 11.7472 36.3578C11.2118 36.5327 10.6664 36.6752 10.1139 36.7844C9.59611 36.8909 9.06904 36.9463 8.54037 36.9495C7.33346 36.9672 6.13292 36.7715 4.9941 36.3716C3.99337 36.0116 3.07579 35.453 2.29654 34.7294C1.55749 34.042 0.975384 33.2034 0.589928 32.2706C0.189708 31.2832 -0.0099125 30.2259 0.00270541 29.1605C-0.0277908 27.8492 0.19979 26.5447 0.672506 25.3211C1.08046 24.2938 1.70657 23.3673 2.50758 22.6055C3.26709 21.8889 4.16903 21.3403 5.15466 20.9954C6.15349 20.649 7.2033 20.4722 8.26052 20.4725C9.21936 20.4617 10.1755 20.5758 11.1049 20.8119C11.8717 20.9966 12.6118 21.2787 13.307 21.6514L12.2793 24.6101C11.9437 24.4259 11.592 24.2723 11.2287 24.1514C10.7908 24.006 10.3451 23.885 9.89373 23.789C9.49718 23.7021 9.09305 23.6545 8.68717 23.6468C7.90229 23.6335 7.12028 23.7449 6.3704 23.9771C5.73687 24.1723 5.1563 24.5096 4.67296 24.9633C4.20277 25.4214 3.84751 25.9841 3.63614 26.6055C3.38709 27.3439 3.26909 28.1201 3.28748 28.8991C3.27549 29.5927 3.40668 30.2814 3.67284 30.922C3.92329 31.5123 4.30079 32.0401 4.77847 32.4679C5.26826 32.9002 5.84119 33.228 6.46215 33.4312C7.15875 33.6547 7.8868 33.7647 8.61836 33.7569C9.03627 33.7596 9.45367 33.7274 9.86621 33.6605C10.2029 33.6074 10.5284 33.4989 10.8296 33.3394V31.3945H8.05866V28.3303H14.0548V35.1376Z" fill="#D09426"/>
<path d="M21.106 20.6422C22.018 20.6291 22.9264 20.7575 23.799 21.0229C24.5285 21.2471 25.2034 21.6204 25.7808 22.1193C26.3052 22.599 26.7132 23.192 26.9736 23.8532C27.258 24.5664 27.3983 25.3287 27.3865 26.0963C27.3857 26.7646 27.2868 27.4292 27.0929 28.0688C26.8992 28.7152 26.5796 29.317 26.1524 29.8395C25.674 30.4042 25.071 30.8502 24.3908 31.1422C23.524 31.5032 22.5906 31.6767 21.6519 31.6514H19.3581V36.7569H16.2018V20.6422H21.106ZM21.6519 28.5642C22.0671 28.5788 22.4801 28.4972 22.8585 28.3257C23.1555 28.1849 23.4137 27.974 23.6109 27.711C23.7879 27.4784 23.9216 27.2158 24.0054 26.9358C24.0839 26.691 24.1256 26.4359 24.1293 26.1789C24.1232 25.9553 24.0971 25.7327 24.0513 25.5138C23.9938 25.2239 23.8867 24.9461 23.7347 24.6927C23.5569 24.3976 23.3035 24.1553 23.0007 23.9908C22.5906 23.7835 22.1339 23.6856 21.6749 23.7064H19.381V28.5688L21.6519 28.5642ZM24.6293 30.5367L28.616 36.7523H24.8908L20.8216 30.6284L24.6293 30.5367Z" fill="#D09426"/>
<path d="M32.5981 30.8028C32.6015 31.3268 32.7613 31.8379 33.0569 32.2707C33.3682 32.7392 33.7844 33.1287 34.2726 33.4083C34.7725 33.7055 35.3426 33.8638 35.9242 33.867C36.512 33.8794 37.0933 33.7413 37.6128 33.466C38.1322 33.1906 38.5727 32.787 38.8924 32.2936C39.1845 31.8592 39.3439 31.3491 39.3511 30.8257V20.6422H42.4799V30.867C42.4996 31.9773 42.1951 33.0692 41.6037 34.0092C41.0207 34.9218 40.2052 35.6627 39.241 36.156C38.2182 36.6803 37.0826 36.9464 35.9333 36.9312C34.7958 36.9458 33.6723 36.6795 32.6623 36.156C31.6916 35.6652 30.8696 34.9241 30.2813 34.0092C29.6899 33.0692 29.3854 31.9773 29.4051 30.867V20.6422H32.5797L32.5981 30.8028Z" fill="#D09426"/>
<path d="M49.7148 20.6422C50.8746 20.6065 52.0274 20.8339 53.0867 21.3073C53.9597 21.7118 54.6915 22.3685 55.1879 23.1926C55.6881 24.067 55.9389 25.0618 55.9127 26.0688C55.9097 26.7403 55.8092 27.4078 55.6145 28.0504C55.4284 28.7065 55.1168 29.3203 54.697 29.8578C54.2315 30.4225 53.6388 30.869 52.9674 31.1605C52.118 31.5135 51.203 31.6808 50.2837 31.6514H47.9898V36.7569H44.8335V20.6422H49.7148ZM50.2653 28.5642C50.6805 28.5792 51.0931 28.4926 51.4673 28.3119C51.7669 28.1649 52.0265 27.9477 52.2242 27.6789C52.3973 27.4355 52.5305 27.166 52.6188 26.8807C52.6993 26.6437 52.7472 26.3967 52.761 26.1468C52.754 25.9308 52.7279 25.7159 52.683 25.5046C52.6255 25.2147 52.5184 24.9369 52.3665 24.6835C52.1899 24.3874 51.9361 24.1448 51.6324 23.9816C51.2223 23.7743 50.7657 23.6764 50.3066 23.6972H48.0128V28.5688L50.2653 28.5642Z" fill="#D09426"/>
<path d="M56.3073 28.7248C56.3018 27.6422 56.5172 26.5698 56.9404 25.5734C57.7805 23.5889 59.3456 21.9993 61.317 21.1284C62.3235 20.6957 63.4076 20.4725 64.5032 20.4725C65.5987 20.4725 66.6828 20.6957 67.6893 21.1284C68.6738 21.5608 69.5685 22.1738 70.3272 22.9358C71.0875 23.6928 71.6963 24.5881 72.121 25.5734C72.5533 26.5675 72.7736 27.6408 72.7678 28.7248C72.7786 29.8285 72.5582 30.9223 72.121 31.9358C71.6995 32.9174 71.0901 33.8072 70.3272 34.555C69.5642 35.3 68.6698 35.8973 67.6893 36.3165C65.649 37.1603 63.3573 37.1603 61.317 36.3165C60.3416 35.9003 59.4542 35.3026 58.702 34.555C57.9504 33.8045 57.352 32.9149 56.9404 31.9358C56.5119 30.92 56.2965 29.8271 56.3073 28.7248ZM59.5875 28.7248C59.5818 29.4104 59.7128 30.0903 59.9728 30.7248C60.2198 31.3371 60.5845 31.8951 61.0463 32.367C61.4976 32.8439 62.0406 33.2246 62.6428 33.4862C63.2693 33.7527 63.944 33.887 64.6247 33.8807C65.2784 33.8833 65.9254 33.7489 66.524 33.4862C67.1104 33.2289 67.6369 32.8524 68.0701 32.3807C68.9725 31.3841 69.4642 30.0828 69.4464 28.7385C69.4517 28.0414 69.3224 27.3499 69.0656 26.7018C68.8208 26.0899 68.4628 25.5297 68.0104 25.0504C67.5714 24.5773 67.0386 24.2008 66.446 23.9449C65.8298 23.6847 65.1676 23.5506 64.4986 23.5506C63.8296 23.5506 63.1674 23.6847 62.5511 23.9449C61.9738 24.2051 61.4532 24.576 61.0188 25.0367C60.5647 25.5137 60.2079 26.0746 59.9682 26.6881C59.7135 27.3367 59.5843 28.0279 59.5875 28.7248Z" fill="#D09426"/>
<path d="M80.1218 20.6422H91.1322V23.7064H83.3332V27.1422H90.2514V30.2064H83.2965V33.6881H91.4167V36.7523H80.1218V20.6422ZM89.6871 16.6376L86.4482 19.5917H84.5856L86.2968 16.6376H89.6871Z" fill="#D09426"/>
<path d="M93.2334 20.6422H96.4081V33.6927H103.982V36.7569H93.2334V20.6422Z" fill="#D09426"/>
<path d="M105.799 20.6422H108.974V36.7569H105.799V20.6422Z" fill="#D09426"/>
<path d="M110.566 20.6422H121.425V23.7064H117.507V36.7569H114.332V23.711H110.566V20.6422Z" fill="#D09426"/>
<path d="M123.026 20.6422H134.036V23.7064H126.237V27.1422H133.155V30.2064H126.2V33.6881H134.321V36.7523H123.026V20.6422Z" fill="#D09426"/>
<path d="M2.86536 41.8991H3.7049V54.1284H2.86536V41.8991Z" fill="#D09426"/>
<path d="M18.3535 54.4037L8.71934 43.5505L8.93955 43.3762V54.1147H8.11377V41.6422H8.16423L17.7984 52.5826L17.5781 52.6514V41.8991H18.3856V54.4037H18.3535Z" fill="#D09426"/>
<path d="M22.8035 54.1284V41.6238L28.8225 50.1743L28.4647 50.1193L34.4837 41.6238V54.1284H33.6763V43.578L33.7451 43.9908L28.6528 51.1605H28.6206L23.4916 43.9816L23.6292 43.6009V54.1284H22.8035Z" fill="#D09426"/>
<path d="M38.1492 48.0229C38.1358 47.1943 38.292 46.3716 38.608 45.6055C39.2492 44.1035 40.4409 42.9038 41.9386 42.2523C42.7069 41.9116 43.5389 41.738 44.3793 41.7431C45.2118 41.7436 46.0351 41.917 46.797 42.2523C47.5452 42.5772 48.223 43.0446 48.7926 43.6284C49.3641 44.2026 49.8217 44.8796 50.1414 45.6239C50.4654 46.3886 50.6324 47.2107 50.6324 48.0413C50.6324 48.8719 50.4654 49.6939 50.1414 50.4587C49.8222 51.2005 49.3645 51.8747 48.7926 52.445C48.2208 53.018 47.543 53.4745 46.797 53.789C46.0273 54.1041 45.2017 54.2602 44.3701 54.2477C43.5417 54.2568 42.7199 54.1009 41.9524 53.789C40.4516 53.1775 39.254 51.9966 38.6218 50.5046C38.2976 49.718 38.1369 48.8736 38.1492 48.0229ZM39.0117 48.0229C39.0067 48.7424 39.1471 49.4554 39.4246 50.1193C39.6904 50.7634 40.0819 51.3482 40.5761 51.8395C41.0666 52.3327 41.6476 52.7268 42.2873 53C42.9414 53.2842 43.6478 53.4279 44.3609 53.422C45.0876 53.4298 45.8079 53.2861 46.4759 53C47.1196 52.7293 47.7041 52.335 48.1962 51.8395C48.6917 51.3464 49.0874 50.7623 49.3615 50.1193C49.9182 48.7676 49.9182 47.2507 49.3615 45.8991C49.0878 45.2504 48.6923 44.6602 48.1962 44.1605C47.7049 43.6594 47.1205 43.259 46.4759 42.9817C45.8111 42.6941 45.0944 42.5457 44.3701 42.5457C43.6458 42.5457 42.9292 42.6941 42.2644 42.9817C41.6204 43.264 41.0376 43.6691 40.5486 44.1743C39.545 45.2104 38.9882 46.5989 38.9979 48.0413L39.0117 48.0229Z" fill="#D09426"/>
<path d="M56.9907 41.8991C57.9631 41.8376 58.9291 42.0935 59.7433 42.6284C60.3902 43.1193 60.7159 43.9037 60.7159 44.9954C60.7214 45.5047 60.6149 46.0089 60.404 46.4725C60.2024 46.9151 59.8855 47.2954 59.4864 47.5734C59.0317 47.8792 58.5086 48.0683 57.9633 48.1239L57.8762 47.711C58.4779 47.7446 59.0664 47.9007 59.6057 48.1697C60.1087 48.4198 60.5409 48.792 60.8627 49.2523C61.1755 49.7232 61.3357 50.2789 61.3215 50.844C61.3421 51.3448 61.2381 51.8429 61.0187 52.2936C60.8146 52.693 60.521 53.04 60.1608 53.3073C59.7919 53.5823 59.3749 53.7861 58.9313 53.9083C58.4616 54.0436 57.975 54.1115 57.4862 54.1101H54.3024V41.8991H56.9907ZM57.3853 47.6101C57.7326 47.6435 58.083 47.5972 58.4097 47.4748C58.7365 47.3524 59.031 47.1571 59.2708 46.9037C59.6622 46.4052 59.8653 45.7848 59.8443 45.1514C59.8789 44.7999 59.8272 44.4453 59.6937 44.1184C59.5602 43.7914 59.3489 43.502 59.0781 43.2752C58.4732 42.8671 57.7516 42.6674 57.0229 42.7064H55.1327V47.6101H57.3853ZM57.4357 53.3394C57.9524 53.344 58.4655 53.2538 58.9497 53.0734C59.388 52.9112 59.7703 52.6261 60.0507 52.2523C60.3397 51.8533 60.4852 51.3683 60.4636 50.8761C60.4918 50.3575 60.3286 49.8466 60.0048 49.4404C59.6936 49.0762 59.2893 48.8035 58.835 48.6514C58.3716 48.484 57.8826 48.3987 57.3899 48.3991H55.1373V53.3211L57.4357 53.3394Z" fill="#D09426"/>
<path d="M64.9734 41.8991H65.8175V54.1284H64.9734V41.8991Z" fill="#D09426"/>
<path d="M70.2354 41.8991H71.0795V53.3027H77.7729V54.1284H70.2354V41.8991Z" fill="#D09426"/>
<path d="M81.1449 41.8991H81.989V54.1284H81.1449V41.8991Z" fill="#D09426"/>
<path d="M85.3335 54.1284L90.4946 41.3807H90.5634L95.7338 54.1284H94.7887L90.2974 42.7064L90.8846 42.3807L86.1868 54.1284H85.3335ZM87.8292 49.2936H93.2472L93.4904 50.0826H87.6273L87.8292 49.2936Z" fill="#D09426"/>
<path d="M101.877 41.8991C102.342 41.8981 102.806 41.9646 103.253 42.0963C103.7 42.2258 104.12 42.4357 104.492 42.7156C104.874 43 105.188 43.3669 105.409 43.789C105.65 44.276 105.768 44.8146 105.753 45.3578C105.754 45.8093 105.685 46.2582 105.547 46.6881C105.409 47.1182 105.18 47.5138 104.877 47.8486C104.541 48.2102 104.129 48.4922 103.67 48.6743C103.085 48.8992 102.462 49.0052 101.835 48.9862H99.9406V54.1284H99.0964V41.8991H101.877ZM101.776 48.1651C102.293 48.1811 102.808 48.0922 103.29 47.9037C103.652 47.763 103.976 47.5381 104.235 47.2477C104.459 46.9787 104.626 46.6665 104.726 46.3303C104.82 46.021 104.87 45.6996 104.872 45.3762C104.874 45.0221 104.806 44.6713 104.67 44.344C104.541 44.0227 104.346 43.732 104.097 43.4908C103.832 43.2382 103.521 43.0402 103.179 42.9083C102.801 42.7609 102.397 42.6877 101.991 42.6927H99.9268V48.1651H101.776ZM103.528 48.5413L106.918 54.1284H105.937L102.533 48.5872L103.528 48.5413Z" fill="#D09426"/>
<path d="M110.515 41.8991H111.355V54.1284H110.515V41.8991Z" fill="#D09426"/>
<path d="M115.002 48.0229C114.996 47.1927 115.16 46.37 115.484 45.6055C116.127 44.1018 117.322 42.9018 118.823 42.2523C119.59 41.9283 120.414 41.7614 121.246 41.7614C122.078 41.7614 122.902 41.9283 123.668 42.2523C124.416 42.5772 125.094 43.0446 125.664 43.6284C126.235 44.2026 126.693 44.8796 127.012 45.6239C127.336 46.3886 127.503 47.2107 127.503 48.0413C127.503 48.8719 127.336 49.694 127.012 50.4587C126.693 51.2005 126.235 51.8747 125.664 52.445C125.092 53.018 124.414 53.4745 123.668 53.789C122.898 54.1046 122.073 54.2607 121.241 54.2477C120.413 54.2564 119.591 54.1005 118.823 53.789C117.323 53.1775 116.125 51.9966 115.493 50.5046C115.162 49.7193 114.995 48.8749 115.002 48.0229ZM115.864 48.0229C115.86 48.7309 115.996 49.4328 116.264 50.0879C116.533 50.743 116.929 51.3384 117.429 51.8395C117.92 52.3318 118.501 52.7257 119.14 53C119.794 53.2838 120.501 53.4275 121.214 53.422C121.942 53.4294 122.663 53.2857 123.333 53C124.63 52.4491 125.663 51.4164 126.214 50.1193C126.492 49.4504 126.635 48.7334 126.635 48.0092C126.635 47.285 126.492 46.5679 126.214 45.8991C125.94 45.2516 125.546 44.6618 125.053 44.1606C124.56 43.6616 123.976 43.2614 123.333 42.9817C122.667 42.6942 121.95 42.546 121.225 42.546C120.5 42.546 119.783 42.6942 119.117 42.9817C118.474 43.263 117.892 43.6682 117.406 44.1743C116.412 45.205 115.859 46.5822 115.864 48.0138V48.0229Z" fill="#D09426"/>
</svg>
