<svg width="52" height="52" viewBox="0 0 52 52" fill="none" xmlns="http://www.w3.org/2000/svg">
<path d="M48.2222 26.7432V3.77778C48.2222 2.24365 46.9786 1 45.4444 1H6.55556C5.02143 1 3.77778 2.24365 3.77778 3.77778V26.7432M26 14.8889H12.1111V26H26M26 14.8889V26M26 14.8889H39.8889V26H26M1 37.1111H51M6.55556 51L6.55556 45.4444M45.4444 51V45.4444M51 45.4444V31.5556C51 28.4873 48.5127 26 45.4444 26H6.55556C3.48731 26 1 28.4873 1 31.5556V45.4444H51Z" stroke="#D09426" stroke-width="2" stroke-linecap="round" stroke-linejoin="round"/>
</svg>
