<svg width="31" height="30" viewBox="0 0 31 30" fill="none" xmlns="http://www.w3.org/2000/svg">
<path d="M11.2222 8.80721V15.0778C9.44717 15.4381 8.11114 17.0075 8.11114 18.8889C8.11114 21.0367 9.85225 22.7778 12 22.7778C14.1478 22.7778 15.8889 21.0367 15.8889 18.8889V1H20.8262C21.8219 5.21523 25.4559 8.41108 29.8889 8.74831V15L29.1111 15C26.3944 15 23.9279 13.9285 22.1111 12.1851V18.8889C22.1111 24.4731 17.5842 29 12 29C6.41581 29 1.88892 24.4731 1.88892 18.8889C1.88892 13.5663 6.00146 9.20436 11.2222 8.80721ZM11.2222 8.80721V8.77778" stroke="#D09426" stroke-width="2" stroke-linecap="round" stroke-linejoin="round"/>
</svg>
